<?xml version="1.0" encoding="utf-8"?>
<!-- Generator: Adobe Illustrator 16.0.0, SVG Export Plug-In . SVG Version: 6.00 Build 0)  -->
<!DOCTYPE svg PUBLIC "-//W3C//DTD SVG 1.1//EN" "http://www.w3.org/Graphics/SVG/1.1/DTD/svg11.dtd">
<svg version="1.1" id="Layer_1" xmlns="http://www.w3.org/2000/svg" xmlns:xlink="http://www.w3.org/1999/xlink" x="0px" y="0px"
	 width="306.022px" height="325.592px" viewBox="4860.535 2996.883 306.022 325.592"
	 enable-background="new 4860.535 2996.883 306.022 325.592" xml:space="preserve">
<g>
	<path fill="none" d="M4417.191,727.215c-0.521-5.886-1.045-11.779-1.578-17.799C4414.514,713.982,4415.77,720.54,4417.191,727.215z
		"/>
	<path fill="none" d="M4395.609,850.009c-3.678,1.861-12.533,2.65-20.361,3.713C4382.586,855.415,4389.203,853.252,4395.609,850.009
		z"/>
	<path fill="none" d="M4253.711,717.289c8.613-6.146,17.062-11.941,25.225-18.116c2.994-2.266,5.312-5.428,8.457-8.727
		c-4.77-1.814-8.653-3.406-12.617-4.776c-9.804-3.392-19.063-7.614-26.326-15.404c-1.449-1.555-3.655-2.405-5.674-3.686
		c1.381,13.133,2.53,25.715,4.108,38.242C4247.527,709.933,4249.791,714.52,4253.711,717.289z"/>
	<path fill="none" d="M4351.82,726.294c-2.668,0.261-3.131,2.288-3.195,4.498c0.043,2.226,0.893,3.907,3.271,4.178
		c1.998,0.229,3.709-1.827,3.666-4.137C4355.518,728.345,4353.779,726.104,4351.82,726.294z"/>
	<path fill="none" d="M4361.393,857.771c1.449-2.074,7.291-3.158,13.855-4.051c-0.406-0.094-0.814-0.191-1.227-0.311
		C4369.043,851.98,4364.57,853.225,4361.393,857.771z"/>
	<path fill="none" d="M4395.609,850.009c-3.678,1.861-12.533,2.65-20.361,3.713C4382.586,855.415,4389.203,853.252,4395.609,850.009
		z"/>
	<path fill="none" d="M4417.191,727.215c-0.521-5.886-1.045-11.779-1.578-17.799C4414.514,713.982,4415.77,720.54,4417.191,727.215z
		"/>
	<path fill="none" d="M4443.037,777.654c-0.002-0.013-0.004-0.022-0.004-0.034c-0.002,0.011-0.002,0.022-0.004,0.035
		L4443.037,777.654z"/>
	<path fill="none" d="M4443.504,841.752c-0.219,0.056-1.305,0.326-2.883,0.729C4441.484,842.67,4442.627,842.186,4443.504,841.752z"
		/>
	<path d="M4443.029,777.655c0.002-0.013,0.002-0.024,0.004-0.035c-0.012,0.01-0.021,0.025-0.029,0.036
		C4443.014,777.656,4443.021,777.655,4443.029,777.655z"/>
	<path fill="#FFFFFF" d="M4458.865,807.177c0.094-0.467,0.189-0.927,0.285-1.373c-0.096,0.444-0.217,0.88-0.318,1.322
		C4458.844,807.145,4458.854,807.159,4458.865,807.177z"/>
	<path fill="#FFFFFF" d="M4458.832,807.126c-0.107,0.467-0.221,0.931-0.334,1.396c0.006,0.003,0.02,0.011,0.021,0.012
		c-0.004,0.068,0.014,0.141,0.039,0.211c0.102-0.532,0.203-1.057,0.307-1.566C4458.854,807.159,4458.844,807.145,4458.832,807.126z"
		/>
	<g>
		<path d="M4455.492,780.479c-0.838-7.627,1.736-9.578,1.557-17.264c-0.051-2.218-2-9.026-9.18-13.038
			c-3.641-1.97-6.629-4.5-10.486-6.655c3.379-7.834,3.041-10.206-3.174-14.504c-0.685-0.474-1.33-1.006-1.971-1.537
			c-4.266-3.539-6.4-7.813-4.873-13.491c0.482-1.794,0.551-3.698,0.852-5.545c0.438-2.682-0.512-3.92-3.295-4.822
			c-8.809-2.855-16.612-7.337-20.811-16.149c-0.706-1.48-0.709-3.582-0.34-5.24c1.844-8.282,4.449-16.431,5.76-24.787
			c1.227-7.831,0.305-15.627-5.801-21.765c-0.208,0-0.416,0-0.625,0c-2.551,1.756-5.548,3.108-7.568,5.345
			c-5.842,6.464-11.49,13.129-16.85,19.998c-8.66,11.098-11.736,12.622-25.303,8.559c-16.576-4.965-32.299-3.079-47.854,4.228
			c3.696,5.246,10.451,4.519,14.998,8.09c-3.354-0.442-6.746-0.91-9.795-2.191c-6.586-2.771-13.022-5.902-19.474-8.986
			c-10.381-4.964-20.795-9.863-31.053-15.071c-6.844-3.476-13.191-8.018-20.213-11.029c-8.32-3.569-17.125-6.009-25.721-8.938
			c-1.666,0-3.334,0-5.002,0c-1.224,9.602,2.539,17.344,8.539,24.539c3.358,4.029,6.293,8.545,8.684,13.218
			c2.574,5.03,1.979,10.136-1.305,15.063c-1.67,2.511-2.908,5.62-3.33,8.603c-2.43,17.146,2.369,32.044,14.592,44.441
			c0.752,0.764,1.463,1.567,2.344,2.516c-9.664,5.474-16.471,12.979-20.721,22.747c-1.779,4.09-3.482,8.212-5.121,12.357
			c-4.078,10.31-9.496,19.796-18.484,26.537c-4.852,3.638-10.348,6.481-15.768,9.269c-3.787,1.947-5.904,4.602-6.392,8.817
			c-0.438,3.803-1.19,7.568-1.806,11.352c0,5.419,0,10.839,0,16.258c0.498,3.587,0.894,7.191,1.514,10.759
			c5.241,30.154,21.98,51.981,48.777,66.108c19.729,10.4,41.4,14.314,63.193,17.554c5.525,0.819,11.047,1.663,16.57,2.494
			c1.666,0,3.334,0,5.002,0c0.385-0.607,0.836-1.187,1.145-1.831c5.473-11.413,10.73-22.936,16.457-34.22
			c3.564-7.025,7.631-13.821,11.838-20.489c3.627-5.748,10.723-11.769,17.379-10.383c3.279,0.683,6.797,0.845,10.133,0.509
			c10.191-1.025,18.909-5.913,27.359-11.265c8.512-5.391,23.102-15.786,24.461-16.319c3.203-1.259,5.865-2.392,5.865-2.392
			c1.528-1.401,6.088-0.655,8.129-1.231c3.176-0.899,6.459-1.541,9.74-1.908c7.518-0.842,15.065-5.799,15.973-7.771
			c3.463-7.523,5.488-14.179,7.34-22.24C4468.383,788.27,4456.262,787.486,4455.492,780.479z M4372.283,678.559
			c9.757,2.535,17.047,8.847,23.957,15.715c5.993,5.957,12.037,11.835,19.373,15.144c0.533,6.021,1.057,11.913,1.578,17.799
			c1.029,4.834,2.148,9.729,2.523,13.974c-6.109,0.003-13.131,0.231-17.869,5.248c14.733,0.226,18.03-4.279,30.287,4.18
			c-1.529,0.088-0.845,0.119-9.951,0.757c-7.135,0.5-11.672,4.703-12.342,11.338c-0.621,6.175,12.725,13.034,19.045,14.951
			c4.512,0.014,9.057-0.036,13.688-0.039c-0.312,2.433,1.584,12.211-2.354,14.028c-3.385,0.672-6.715,5.417-9.19,11
			c-3.824,8.621-7.013,20.069-10.942,25.008c-2.115,2.654-4.262,5.275-6.504,7.787c-5.166,5.779-10.863,10.966-17.974,14.562
			c-6.405,3.243-13.022,5.406-20.36,3.713c-6.564,0.893-12.406,1.977-13.855,4.051c-0.764,1.093-1.805,2.03-2.854,2.873
			c-2.004,1.61-4.242,2.5-6.98,1.688c0.32-4.389,3.242-6.03,6.801-7.198c0.883-0.29,1.852-1.066,2.271-1.883
			c1.457-2.828,2.399-5.95,4.062-8.637c4.397-7.107,4.088-10.479-2-16.005c-4.617-4.194-4.76-6.159-0.786-10.907
			c2.109-2.521,1.973-3.393-1.182-4.706c-2.069-0.861-2.934-2.224-2.64-4.346c0.497-3.59,0.55-7.346,1.706-10.718
			c2.791-8.136,6.041-16.118,9.234-24.11c4.492-11.25,10.348-21.412,22.041-26.257c-1.25-3.167-2.871-6.038-3.482-9.111
			c-1.01-5.083-1.303-10.301-2.016-15.446c-0.926-6.677-1.51-13.445-3.062-19.979c-2.24-9.42-7.117-17.626-14.133-25.315
			C4370.133,678.093,4371.221,678.281,4372.283,678.559z M4448.973,800.827c0.215,0.146,0.271,0.439,0.123,0.655
			c-0.146,0.215-0.438,0.271-0.653,0.124c-0.53-0.361-3.658-3.536-13.133,1.54c-0.021,0.011-0.138,0.118-0.317,0.235
			c-0.457,0.299-1.328,0.668-2.129-0.28c-0.029-0.037-0.041-0.079-0.054-0.121c-0.054-0.19,0.06-0.418,0.246-0.52
			C4443.018,797.123,4448.393,800.432,4448.973,800.827z M4325.186,725.446c1.517-4.626,3.412-9.148,5.438-13.58
			c1.674-3.666,3.479-7.349,5.787-10.628c2.896-4.116,7.149-6.396,12.815-7.104c-9.139,7.125-13.811,16.839-19.467,25.874
			c8.148-5.188,16.521-6.483,25.207-2.773c-6.016,1.182-12.225,1.811-18.021,3.703c-6.285,2.053-10.063,7.014-11.604,13.834
			c3.217,0.252,3.334,2.316,3.646,4.747c0.362,2.831,1.158,5.753,2.451,8.285c3.101,6.077,10.461,9.422,17.455,8.386
			c6.381-0.944,10.403-4.982,12.095-12.188c0.274-1.167,0.412-2.366,0.789-4.595c1.453,1.934,2.6,2.982,3.153,4.285
			c1.481,3.482-0.01,7.686-3.606,10.769c-4.58,3.925-9.84,6.587-15.685,7.985c-11.685,2.798-20.22-2.093-22.183-13.753
			C4322.16,741.01,4322.707,733.013,4325.186,725.446z M4355.562,730.833c0.043,2.31-1.668,4.364-3.666,4.137
			c-2.379-0.271-3.229-1.952-3.271-4.178c0.064-2.21,0.527-4.237,3.195-4.498C4353.779,726.104,4355.518,728.345,4355.562,730.833z
			 M4248.449,670.266c7.262,7.79,16.521,12.014,26.326,15.404c3.963,1.37,7.848,2.962,12.617,4.776
			c-3.146,3.299-5.463,6.461-8.457,8.727c-8.162,6.175-16.611,11.971-25.225,18.116c-3.92-2.771-6.185-7.356-6.828-12.467
			c-1.578-12.527-2.728-25.109-4.108-38.242C4244.793,667.859,4247,668.711,4248.449,670.266z M4443.504,841.752
			c-0.877,0.434-2.02,0.918-2.883,0.729c-5.457,1.395-18.547,4.134-20.598,5.395c10.16-14.067,11.053-18.779,10.762-18.938
			c-1.219,1.442-9.09,11.744-10.34,12.812c-8.229,7.031-13.062,10.776-21.662,17.32c-15.842,12.059-33.975,18.022-53.887,18.648
			c-2.492,0.079-3.597-0.683-3.807-3.234c-0.12-1.474-0.956-2.889-1.716-5.021c-1.33,2.525-2.351,4.111-3.03,5.832
			c-1.101,2.778-3.054,4.171-5.933,4.823c-2.819,0.641-0.69,4.033-3.054,8.746c-0.994,1.811-1.846,3.338-2.676,4.876
			c-7.815,14.461-14.949,29.245-19.746,45.003c-0.979,3.208-2.321,3.758-5.176,3.282c-9.11-1.52-18.283-2.702-27.356-4.407
			c-16.36-3.072-32.283-7.596-47.353-14.898c-41.778-20.247-53.18-59.435-47.053-95.619c0.168-0.987,1.137-2.101,2.04-2.652
			c3.272-2.004,6.835-3.562,10.005-5.704c13.148-8.89,25.627-18.316,29.219-35.245c3.402-16.023,15.67-25.388,27.533-35.789
			c-0.619,4.007-0.879,7.533-1.737,10.907c-2.278,8.938-4.81,17.813-7.252,26.71c-2.89,10.518-3.365,20.682,4.071,29.811
			c0.9,1.105,1.435,2.526,2.051,3.841c0.236,0.507,0.229,1.126,0.332,1.694c-0.213,0.145-0.428,0.285-0.641,0.428
			c-3.275-4.089-6.551-8.178-9.826-12.267c-0.676,1.049-0.697,1.646-0.672,2.244c0.539,12.525,6.305,21.995,17.439,27.567
			c7.476,3.742,15.432,6.564,23.285,9.5c8.771,3.28,17.625,6.273,24.887,12.574c0.783,0.68,2.531,0.59,3.747,0.376
			c10.376-1.829,20.788-3.174,31.341-2.158c7.072,0.682,13.795,2.321,18.244,8.621c1.038,1.47,2.225,1.719,3.729,0.784
			c1.146-0.709,2.492-1.195,3.435-2.107c4.31-4.174,8.938-6.312,15.377-6.52c14.142-0.451,25.729-7.384,35.731-17.102
			c5.974-5.802,14.396-15.444,17.154-24.068c0-0.007,0.004-0.012,0.006-0.019c1.695-5.317,3.172-8.163,6.488-9.961
			c0.604-0.327,1.108-0.091,1.506,0.332c0.658,0.699,1.016,1.909,1.016,1.909c0.695-0.128,2-3.5,4.857-4.316h0.002
			c0.979-0.273-1.377,4.188-0.359,4.191c1.729,0.006,6-5.75,6.625-3.125c0.083,0.348,1.863-1.532,2.25-1.5
			c3.963,0.331,7.479,2.045,8.678,2.679c0,0.001,0,0.003-0.002,0.003C4456.198,821.135,4454.021,839.081,4443.504,841.752z
			 M4459.15,805.804c-0.064,0.305-0.131,0.621-0.194,0.937c-3.2-4.704-9.485-12.828-12.965-14.743c0,0-0.022-0.024-0.019-0.073
			c0.209-2.279-2.943-11.965-2.967-14.303c0,0,0.016,0,0.022,0c-0.002-0.056,0.004-0.218,0.008-0.35
			c0.013-0.04-0.003,0.256-0.006,0.35l0,0c0.002,0.012,0.004,0.021,0.006,0.034c1.33-0.08,2.834-0.136,4.679-0.136
			c5.168,2.418,0.953,6.521,5.668,9.666c0.432,0.289,2.041,4.381,2.332,4.812C4459.918,798.186,4460.4,800.018,4459.15,805.804z"/>
		<path d="M4443.031,777.62h-0.002c0,0.011,0,0.035,0,0.035C4443.029,777.665,4443.029,777.643,4443.031,777.62z"/>
	</g>
	<circle cx="4395.652" cy="813.106" r="1.875"/>
	<circle cx="4407.402" cy="808.69" r="1.875"/>
	<circle cx="4407.402" cy="816.856" r="1.875"/>
	<circle cx="4399.402" cy="802.106" r="1.875"/>
	<circle cx="4413.486" cy="801.521" r="1.875"/>
	<circle cx="4390.236" cy="797.771" r="1.875"/>
	<circle cx="4416.736" cy="811.231" r="1.875"/>
</g>
<g>
	<path fill="none" d="M4726.191,2860.215c-0.521-5.886-1.045-11.779-1.578-17.799
		C4723.514,2846.982,4724.77,2853.54,4726.191,2860.215z"/>
	<path fill="none" d="M4704.609,2983.009c-3.678,1.861-12.533,2.65-20.361,3.713
		C4691.586,2988.415,4698.203,2986.252,4704.609,2983.009z"/>
	<path fill="none" d="M4562.711,2850.289c8.613-6.146,17.062-11.941,25.225-18.116c2.994-2.266,5.312-5.428,8.457-8.727
		c-4.77-1.814-8.653-3.406-12.617-4.776c-9.804-3.392-19.063-7.614-26.326-15.404c-1.449-1.555-3.655-2.405-5.674-3.686
		c1.381,13.133,2.53,25.715,4.108,38.242C4556.527,2842.933,4558.791,2847.52,4562.711,2850.289z"/>
	<path fill="none" d="M4660.82,2859.294c-2.668,0.261-3.131,2.288-3.195,4.498c0.043,2.226,0.893,3.907,3.271,4.178
		c1.998,0.229,3.709-1.827,3.666-4.137C4664.518,2861.345,4662.779,2859.104,4660.82,2859.294z"/>
	<path fill="none" d="M4670.393,2990.771c1.449-2.074,7.291-3.158,13.855-4.051c-0.406-0.094-0.814-0.191-1.227-0.311
		C4678.043,2984.98,4673.57,2986.225,4670.393,2990.771z"/>
	<path fill="none" d="M4704.609,2983.009c-3.678,1.861-12.533,2.65-20.361,3.713
		C4691.586,2988.415,4698.203,2986.252,4704.609,2983.009z"/>
	<path fill="none" d="M4726.191,2860.215c-0.521-5.886-1.045-11.779-1.578-17.799
		C4723.514,2846.982,4724.77,2853.54,4726.191,2860.215z"/>
	<path fill="none" d="M4752.037,2910.654c-0.002-0.013-0.004-0.022-0.004-0.034c-0.002,0.011-0.002,0.022-0.004,0.035
		L4752.037,2910.654z"/>
	<path fill="none" d="M4752.504,2974.752c-0.219,0.056-1.305,0.326-2.883,0.729
		C4750.484,2975.67,4751.627,2975.186,4752.504,2974.752z"/>
	<path d="M4752.029,2910.655c0.002-0.013,0.002-0.024,0.004-0.035c-0.012,0.01-0.021,0.025-0.029,0.036
		C4752.014,2910.656,4752.021,2910.655,4752.029,2910.655z"/>
	<path fill="#FFFFFF" d="M4767.865,2940.177c0.094-0.467,0.189-0.927,0.285-1.373c-0.096,0.444-0.217,0.88-0.318,1.322
		C4767.844,2940.145,4767.854,2940.159,4767.865,2940.177z"/>
	<path fill="#FFFFFF" d="M4767.832,2940.126c-0.107,0.467-0.221,0.931-0.334,1.396c0.006,0.003,0.02,0.011,0.021,0.012
		c-0.004,0.068,0.014,0.141,0.039,0.211c0.102-0.532,0.203-1.057,0.307-1.566
		C4767.854,2940.159,4767.844,2940.145,4767.832,2940.126z"/>
	<g>
		<path d="M4764.492,2913.479c-0.838-7.627,1.736-9.578,1.557-17.264c-0.051-2.218-2-9.026-9.18-13.038
			c-3.641-1.97-6.629-4.5-10.486-6.655c3.379-7.834,3.041-10.206-3.174-14.504c-0.685-0.474-1.33-1.006-1.971-1.537
			c-4.266-3.539-6.4-7.813-4.873-13.491c0.482-1.794,0.551-3.698,0.852-5.545c0.438-2.682-0.512-3.92-3.295-4.822
			c-8.809-2.855-16.612-7.337-20.811-16.149c-0.706-1.48-0.709-3.582-0.34-5.24c1.844-8.282,4.449-16.431,5.76-24.787
			c1.227-7.831,0.305-15.627-5.801-21.765c-0.208,0-0.416,0-0.625,0c-2.551,1.756-5.548,3.108-7.568,5.345
			c-5.842,6.464-11.49,13.129-16.85,19.998c-8.66,11.098-11.736,12.622-25.303,8.559c-16.576-4.965-32.299-3.079-47.854,4.228
			c3.696,5.246,10.451,4.519,14.998,8.09c-3.354-0.442-6.746-0.91-9.795-2.191c-6.586-2.771-13.022-5.902-19.474-8.986
			c-10.381-4.964-20.795-9.863-31.053-15.071c-6.844-3.476-13.191-8.018-20.213-11.029c-8.32-3.569-17.125-6.009-25.721-8.938
			c-1.666,0-3.334,0-5.002,0c-1.224,9.602,2.539,17.344,8.539,24.539c3.358,4.029,6.293,8.545,8.684,13.218
			c2.574,5.03,1.979,10.136-1.305,15.063c-1.67,2.511-2.908,5.62-3.33,8.603c-2.43,17.146,2.369,32.044,14.592,44.441
			c0.752,0.764,1.463,1.567,2.344,2.516c-9.664,5.474-16.471,12.979-20.721,22.747c-1.779,4.09-3.482,8.212-5.121,12.357
			c-4.078,10.31-9.496,19.796-18.484,26.537c-4.852,3.638-10.348,6.481-15.768,9.269c-3.787,1.947-5.904,4.602-6.392,8.817
			c-0.438,3.803-1.19,7.568-1.806,11.352c0,5.419,0,10.839,0,16.258c0.498,3.587,0.894,7.191,1.514,10.759
			c5.241,30.154,21.98,51.981,48.777,66.108c19.729,10.4,41.4,14.314,63.193,17.554c5.525,0.819,11.047,1.663,16.57,2.494
			c1.666,0,3.334,0,5.002,0c0.385-0.607,0.836-1.187,1.145-1.831c5.473-11.413,10.73-22.936,16.457-34.22
			c3.564-7.025,7.631-13.821,11.838-20.489c3.627-5.748,10.723-11.769,17.379-10.383c3.279,0.683,6.797,0.845,10.133,0.509
			c10.191-1.025,18.909-5.913,27.359-11.265c8.512-5.391,23.102-15.786,24.461-16.319c3.203-1.259,5.865-2.392,5.865-2.392
			c1.528-1.401,6.088-0.655,8.129-1.231c3.176-0.899,6.459-1.541,9.74-1.908c7.518-0.842,15.065-5.799,15.973-7.771
			c3.463-7.523,5.488-14.179,7.34-22.24C4777.383,2921.27,4765.262,2920.486,4764.492,2913.479z M4681.283,2811.559
			c9.757,2.535,17.047,8.847,23.957,15.715c5.993,5.957,12.037,11.835,19.373,15.144c0.533,6.021,1.057,11.913,1.578,17.799
			c1.029,4.834,2.148,9.729,2.523,13.974c-6.109,0.003-13.131,0.231-17.869,5.248c14.733,0.226,18.03-4.279,30.287,4.18
			c-1.529,0.088-0.845,0.119-9.951,0.757c-7.135,0.5-11.672,4.703-12.342,11.338c-0.621,6.175,12.725,13.034,19.045,14.951
			c4.512,0.014,9.057-0.036,13.688-0.039c-0.312,2.433,1.584,12.211-2.354,14.028c-3.385,0.672-6.715,5.417-9.19,11
			c-3.824,8.621-7.013,20.069-10.942,25.008c-2.115,2.654-4.262,5.275-6.504,7.787c-5.166,5.779-10.863,10.966-17.974,14.562
			c-6.405,3.243-13.022,5.406-20.36,3.713c-6.564,0.893-12.406,1.977-13.855,4.051c-0.764,1.093-1.805,2.03-2.854,2.873
			c-2.004,1.61-4.242,2.5-6.98,1.688c0.32-4.389,3.242-6.03,6.801-7.198c0.883-0.29,1.852-1.066,2.271-1.883
			c1.457-2.828,2.399-5.95,4.062-8.637c4.397-7.107,4.088-10.479-2-16.005c-4.617-4.194-4.76-6.159-0.786-10.907
			c2.109-2.521,1.973-3.393-1.182-4.706c-2.069-0.861-2.934-2.224-2.64-4.346c0.497-3.59,0.55-7.346,1.706-10.718
			c2.791-8.136,6.041-16.118,9.234-24.11c4.492-11.25,10.348-21.412,22.041-26.257c-1.25-3.167-2.871-6.038-3.482-9.111
			c-1.01-5.083-1.303-10.301-2.016-15.446c-0.926-6.677-1.51-13.445-3.062-19.979c-2.24-9.42-7.117-17.626-14.133-25.315
			C4679.133,2811.093,4680.221,2811.281,4681.283,2811.559z M4757.973,2933.827c0.215,0.146,0.271,0.439,0.123,0.655
			c-0.146,0.215-0.438,0.271-0.653,0.124c-0.53-0.361-3.658-3.536-13.133,1.54c-0.021,0.011-0.138,0.118-0.317,0.235
			c-0.457,0.299-1.328,0.668-2.129-0.28c-0.029-0.037-0.041-0.079-0.054-0.121c-0.054-0.19,0.06-0.418,0.246-0.52
			C4752.018,2930.123,4757.393,2933.432,4757.973,2933.827z M4634.186,2858.446c1.517-4.626,3.412-9.148,5.438-13.58
			c1.674-3.666,3.479-7.349,5.787-10.628c2.896-4.116,7.149-6.396,12.815-7.104c-9.139,7.125-13.811,16.839-19.467,25.874
			c8.148-5.188,16.521-6.483,25.207-2.773c-6.016,1.182-12.225,1.811-18.021,3.703c-6.285,2.053-10.063,7.014-11.604,13.834
			c3.217,0.252,3.334,2.316,3.646,4.747c0.362,2.831,1.158,5.753,2.451,8.285c3.101,6.077,10.461,9.422,17.455,8.386
			c6.381-0.944,10.403-4.982,12.095-12.188c0.274-1.167,0.412-2.366,0.789-4.595c1.453,1.934,2.6,2.982,3.153,4.285
			c1.481,3.482-0.01,7.686-3.606,10.769c-4.58,3.925-9.84,6.587-15.685,7.985c-11.685,2.798-20.22-2.093-22.183-13.753
			C4631.16,2874.01,4631.707,2866.013,4634.186,2858.446z M4664.562,2863.833c0.043,2.31-1.668,4.364-3.666,4.137
			c-2.379-0.271-3.229-1.952-3.271-4.178c0.064-2.21,0.527-4.237,3.195-4.498
			C4662.779,2859.104,4664.518,2861.345,4664.562,2863.833z M4557.449,2803.266c7.262,7.79,16.521,12.014,26.326,15.404
			c3.963,1.37,7.848,2.962,12.617,4.776c-3.146,3.299-5.463,6.461-8.457,8.727c-8.162,6.175-16.611,11.971-25.225,18.116
			c-3.92-2.771-6.185-7.356-6.828-12.467c-1.578-12.527-2.728-25.109-4.108-38.242
			C4553.793,2800.859,4556,2801.711,4557.449,2803.266z M4752.504,2974.752c-0.877,0.434-2.02,0.918-2.883,0.729
			c-5.457,1.395-18.547,4.134-20.598,5.395c10.16-14.067,11.053-18.779,10.762-18.938c-1.219,1.442-9.09,11.744-10.34,12.812
			c-8.229,7.031-13.062,10.776-21.662,17.32c-15.842,12.059-33.975,18.022-53.887,18.648c-2.492,0.079-3.597-0.683-3.807-3.234
			c-0.12-1.474-0.956-2.889-1.716-5.021c-1.33,2.525-2.351,4.111-3.03,5.832c-1.101,2.778-3.054,4.171-5.933,4.823
			c-2.819,0.641-0.69,4.033-3.054,8.746c-0.994,1.811-1.846,3.338-2.676,4.876c-7.815,14.461-14.949,29.245-19.746,45.003
			c-0.979,3.208-2.321,3.758-5.176,3.282c-9.11-1.52-18.283-2.702-27.356-4.407c-16.36-3.072-32.283-7.596-47.353-14.898
			c-41.778-20.247-53.18-59.435-47.053-95.619c0.168-0.987,1.137-2.101,2.04-2.652c3.272-2.004,6.835-3.562,10.005-5.704
			c13.148-8.89,25.627-18.316,29.219-35.245c3.402-16.023,15.67-25.388,27.533-35.789c-0.619,4.007-0.879,7.533-1.737,10.907
			c-2.278,8.938-4.81,17.813-7.252,26.71c-2.89,10.518-3.365,20.682,4.071,29.811c0.9,1.105,1.435,2.526,2.051,3.841
			c0.236,0.507,0.229,1.126,0.332,1.694c-0.213,0.145-0.428,0.285-0.641,0.428c-3.275-4.089-6.551-8.178-9.826-12.267
			c-0.676,1.049-0.697,1.646-0.672,2.244c0.539,12.525,6.305,21.995,17.439,27.567c7.476,3.742,15.432,6.564,23.285,9.5
			c8.771,3.28,17.625,6.273,24.887,12.574c0.783,0.68,2.531,0.59,3.747,0.376c10.376-1.829,20.788-3.174,31.341-2.158
			c7.072,0.682,13.795,2.321,18.244,8.621c1.038,1.47,2.225,1.719,3.729,0.784c1.146-0.709,2.492-1.195,3.435-2.107
			c4.31-4.174,8.938-6.312,15.377-6.52c14.142-0.451,25.729-7.384,35.731-17.102c5.974-5.802,14.396-15.444,17.154-24.068
			c0-0.007,0.004-0.012,0.006-0.019c1.695-5.317,3.172-8.163,6.488-9.961c0.604-0.327,1.108-0.091,1.506,0.332
			c0.658,0.699,1.016,1.909,1.016,1.909c0.695-0.128,2-3.5,4.857-4.316h0.002c0.979-0.273-1.377,4.188-0.359,4.191
			c1.729,0.006,6-5.75,6.625-3.125c0.083,0.348,1.863-1.532,2.25-1.5c3.963,0.331,7.479,2.045,8.678,2.679
			c0,0.001,0,0.003-0.002,0.003C4765.198,2954.135,4763.021,2972.081,4752.504,2974.752z M4768.15,2938.804
			c-0.064,0.305-0.131,0.621-0.194,0.937c-3.2-4.704-9.485-12.828-12.965-14.743c0,0-0.022-0.024-0.019-0.073
			c0.209-2.279-2.943-11.965-2.967-14.303c0,0,0.016,0,0.022,0c-0.002-0.056,0.004-0.218,0.008-0.35
			c0.013-0.04-0.003,0.256-0.006,0.35l0,0c0.002,0.012,0.004,0.021,0.006,0.034c1.33-0.08,2.834-0.136,4.679-0.136
			c5.168,2.418,0.953,6.521,5.668,9.666c0.432,0.289,2.041,4.381,2.332,4.812C4768.918,2931.186,4769.4,2933.018,4768.15,2938.804z"
			/>
		<path d="M4752.031,2910.62h-0.002c0,0.011,0,0.035,0,0.035C4752.029,2910.665,4752.029,2910.643,4752.031,2910.62z"/>
	</g>
	<circle cx="4704.652" cy="2946.106" r="1.875"/>
	<circle cx="4716.402" cy="2941.69" r="1.875"/>
	<circle cx="4716.402" cy="2949.856" r="1.875"/>
	<circle cx="4708.402" cy="2935.106" r="1.875"/>
	<circle cx="4722.486" cy="2934.521" r="1.875"/>
	<circle cx="4699.236" cy="2930.771" r="1.875"/>
	<circle cx="4725.736" cy="2944.231" r="1.875"/>
</g>
<g>
	<path d="M5042.146,3130.129c5.844-1.398,11.104-4.061,15.686-7.986c3.598-3.082,5.09-7.285,3.605-10.768
		c-0.555-1.303-1.699-2.352-3.154-4.285c-0.377,2.23-0.514,3.43-0.787,4.596c-1.691,7.203-5.715,11.242-12.094,12.188
		c-6.996,1.035-14.355-2.308-17.457-8.386c-1.291-2.532-2.086-5.455-2.449-8.284c-0.312-2.432-0.43-4.498-3.646-4.748
		c1.541-6.82,5.318-11.783,11.604-13.834c5.796-1.893,12.005-2.521,18.021-3.703c-8.685-3.709-17.059-2.414-25.207,2.773
		c5.656-9.033,10.328-18.748,19.469-25.873c-5.668,0.707-9.922,2.988-12.818,7.104c-2.307,3.281-4.113,6.963-5.787,10.629
		c-2.025,4.431-3.922,8.953-5.438,13.578c-2.479,7.566-3.023,15.564-1.729,23.246
		C5021.928,3128.037,5030.463,3132.926,5042.146,3130.129z"/>
	<polygon points="5139.541,3145.305 5139.539,3145.305 5139.539,3145.305 	"/>
	<path d="M5129.317,3170.664c0.013,0.041,0.022,0.084,0.054,0.121c0.8,0.949,1.672,0.58,2.127,0.281
		c0.182-0.118,0.299-0.227,0.318-0.236c9.475-5.076,12.602-1.9,13.133-1.539c0.215,0.146,0.509,0.09,0.656-0.124
		c0.146-0.216,0.09-0.509-0.125-0.655c-0.58-0.396-5.953-3.705-15.918,1.635C5129.375,3170.248,5129.264,3170.475,5129.317,3170.664
		z"/>
	<path d="M5082.078,3090.691c0.713,5.146,1.006,10.365,2.016,15.447c0.611,3.074,2.234,5.944,3.482,9.112
		c-11.691,4.845-17.547,15.005-22.041,26.255c-3.192,7.994-6.443,15.977-9.232,24.113c-1.158,3.371-1.211,7.127-1.707,10.717
		c-0.295,2.121,0.568,3.484,2.639,4.346c3.152,1.314,3.291,2.184,1.182,4.705c-3.975,4.748-3.832,6.713,0.787,10.907
		c6.087,5.527,6.396,8.897,2,16.005c-1.662,2.688-2.607,5.809-4.063,8.637c-0.419,0.815-1.388,1.593-2.271,1.883
		c-3.561,1.168-6.482,2.81-6.803,7.198c2.74,0.812,4.977-0.078,6.98-1.688c1.049-0.843,2.09-1.782,2.854-2.873
		c3.178-4.548,7.65-5.792,12.631-4.361c0.41,0.118,0.818,0.216,1.226,0.311c7.827-1.062,16.685-1.852,20.361-3.713
		c7.108-3.598,12.806-8.782,17.972-14.563c2.244-2.51,4.389-5.132,6.504-7.788c3.934-4.937,7.119-16.386,10.944-25.008
		c2.476-5.581,5.806-10.327,9.192-10.998c3.938-1.818,2.041-11.597,2.352-14.03c-4.633,0.004-9.178,0.053-13.689,0.039
		c-6.32-1.916-19.666-8.775-19.043-14.951c0.67-6.635,5.205-10.838,12.34-11.338c9.107-0.637,8.422-0.668,9.951-0.756
		c-12.256-8.459-15.553-3.955-30.287-4.18c4.738-5.016,11.76-5.246,17.871-5.248c-0.377-4.244-1.494-9.139-2.525-13.973
		c-1.422-6.674-2.678-13.232-1.576-17.799c-7.336-3.309-13.381-9.188-19.375-15.145c-6.909-6.867-14.199-13.178-23.955-15.713
		c-1.064-0.277-2.15-0.467-3.91-0.844c7.016,7.689,11.893,15.895,14.133,25.314
		C5080.568,3077.246,5081.154,3084.016,5082.078,3090.691z M5113.244,3177.039c1.035,0,1.875,0.84,1.875,1.876
		s-0.84,1.876-1.875,1.876s-1.875-0.84-1.875-1.876S5112.209,3177.039,5113.244,3177.039z M5109.994,3167.332
		c1.035,0,1.875,0.84,1.875,1.875s-0.84,1.875-1.875,1.875s-1.875-0.84-1.875-1.875S5108.959,3167.332,5109.994,3167.332z
		 M5103.91,3174.499c1.037,0,1.875,0.839,1.875,1.874c0,1.037-0.838,1.876-1.875,1.876c-1.035,0-1.875-0.839-1.875-1.876
		C5102.035,3175.338,5102.875,3174.499,5103.91,3174.499z M5103.91,3182.666c1.037,0,1.875,0.84,1.875,1.875
		s-0.838,1.875-1.875,1.875c-1.035,0-1.875-0.84-1.875-1.875S5102.875,3182.666,5103.91,3182.666z M5095.91,3167.915
		c1.037,0,1.876,0.839,1.876,1.874c0,1.037-0.839,1.877-1.876,1.877c-1.035,0-1.875-0.84-1.875-1.877
		C5094.035,3168.754,5094.875,3167.915,5095.91,3167.915z M5092.16,3178.915c1.037,0,1.875,0.839,1.875,1.874
		c0,1.037-0.838,1.877-1.875,1.877c-1.035,0-1.875-0.84-1.875-1.877C5090.285,3179.754,5091.125,3178.915,5092.16,3178.915z
		 M5088.619,3165.455c0,1.037-0.84,1.877-1.875,1.877s-1.875-0.84-1.875-1.877c0-1.033,0.84-1.874,1.875-1.874
		S5088.619,3164.422,5088.619,3165.455z"/>
	<path d="M5146.391,3173.745c-0.387-0.032-2.166,1.849-2.25,1.5c-0.625-2.624-4.896,3.132-6.625,3.126
		c-1.018-0.004,1.338-4.467,0.361-4.193h-0.002c-2.859,0.818-4.162,4.189-4.859,4.318c0,0-0.357-1.211-1.016-1.91
		c-0.396-0.422-0.902-0.66-1.506-0.332c-3.316,1.797-4.791,4.644-6.488,9.961c-0.002,0.006-0.004,0.012-0.006,0.017
		c-2.76,8.624-11.182,18.269-17.154,24.071c-10.002,9.717-21.592,16.648-35.732,17.1c-6.439,0.206-11.068,2.346-15.375,6.52
		c-0.941,0.912-2.291,1.398-3.436,2.109c-1.504,0.934-2.689,0.683-3.729-0.786c-4.449-6.299-11.172-7.94-18.244-8.621
		c-10.553-1.016-20.964,0.329-31.34,2.158c-1.217,0.215-2.965,0.304-3.748-0.377c-7.26-6.3-16.113-9.293-24.887-12.573
		c-7.853-2.936-15.809-5.758-23.285-9.5c-11.135-5.572-16.9-15.043-17.439-27.568c-0.025-0.596-0.002-1.195,0.674-2.244
		c3.273,4.088,6.549,8.178,9.824,12.268c0.214-0.145,0.428-0.285,0.643-0.43c-0.104-0.566-0.098-1.188-0.334-1.693
		c-0.616-1.314-1.148-2.734-2.05-3.842c-7.437-9.129-6.962-19.291-4.073-29.809c2.444-8.897,4.975-17.773,7.252-26.711
		c0.859-3.373,1.119-6.9,1.738-10.908c-11.861,10.402-24.131,19.768-27.532,35.791c-3.593,16.929-16.071,26.355-29.218,35.244
		c-3.172,2.143-6.732,3.699-10.006,5.705c-0.904,0.553-1.873,1.665-2.04,2.652c-6.128,36.185,5.272,75.372,47.052,95.618
		c15.068,7.304,30.99,11.826,47.352,14.899c9.076,1.706,18.248,2.89,27.359,4.408c2.853,0.475,4.196-0.075,5.174-3.283
		c4.799-15.758,11.93-30.542,19.746-45.003c0.83-1.538,1.682-3.064,2.676-4.876c2.363-4.713,0.234-8.104,3.055-8.746
		c2.877-0.652,4.832-2.044,5.932-4.823c0.68-1.721,1.699-3.307,3.029-5.832c0.76,2.133,1.596,3.548,1.717,5.021
		c0.209,2.553,1.314,3.314,3.807,3.235c19.91-0.626,38.044-6.591,53.885-18.648c8.6-6.544,13.434-10.29,21.662-17.321
		c1.25-1.068,9.121-11.37,10.34-12.813c0.291,0.158-0.602,4.871-10.762,18.938c2.051-1.262,15.141-4,20.598-5.396
		c1.578-0.402,2.666-0.674,2.885-0.729c10.516-2.671,12.693-20.617,15.053-33.008c0-0.002,0-0.004,0-0.004
		C5153.867,3175.789,5150.354,3174.076,5146.391,3173.745z"/>
	<path d="M5139.538,3145.305c-0.009,0-0.015,0-0.022,0c0,0.008,0.002,0.02,0.002,0.029c0.006-0.01,0.014-0.02,0.021-0.027
		C5139.538,3145.305,5139.538,3145.305,5139.538,3145.305z"/>
	<path d="M5144.224,3145.203c-1.845,0-3.347,0.055-4.679,0.135h-0.006c-0.008,0-0.014,0.002-0.014,0.002
		c0.041,2.391,3.164,11.998,2.955,14.266c-0.004,0.051,0.02,0.074,0.02,0.074c3.472,1.91,9.736,10.002,12.941,14.709
		c0.074-0.299,0.152-0.598,0.217-0.901c1.25-5.786,0.768-7.618-3.435-13.808c-0.292-0.431-1.901-4.521-2.333-4.811
		C5145.176,3151.723,5149.391,3147.621,5144.224,3145.203z"/>
	<path d="M5159.826,3149.477c-0.543-0.726-1.287-1.723-1.385-2.021c-0.334-3.047,0.032-4.732,0.539-7.064
		c0.516-2.369,1.156-5.314,1.055-9.643c-0.109-4.711-3.528-13.535-12.574-18.586c-1.562-0.847-3.082-1.883-4.693-2.98
		c-0.332-0.227-0.666-0.455-1.006-0.685c1.818-6.595,0.457-11.722-7.357-17.124c-0.469-0.326-1.003-0.768-1.52-1.195
		c-3.137-2.605-3.387-4.475-2.754-6.824c0.432-1.607,0.609-3.129,0.766-4.471c0.066-0.572,0.133-1.146,0.225-1.713
		c0.551-3.383,0.285-9.443-7.693-12.029c-8.822-2.861-14.041-6.76-16.891-12.631c-0.033-0.213-0.041-0.695,0.068-1.188
		c0.66-2.967,1.449-6.02,2.211-8.973c1.354-5.236,2.752-10.652,3.625-16.219c1.77-11.289-0.791-20.486-7.609-27.338l-1.9-1.91
		h-5.332l-1.66,1.143c-0.645,0.443-1.385,0.893-2.17,1.367c-2.113,1.279-4.508,2.73-6.531,4.969
		c-6.148,6.803-11.918,13.652-17.151,20.357c-5.735,7.352-7.366,8.119-9.72,8.119c-1.842,0-4.5-0.549-8.615-1.781
		c-6.742-2.02-13.568-3.045-20.291-3.045c-10.746,0-21.271,2.492-32.176,7.613l-1.156,0.545c-1.824-0.865-3.637-1.732-5.432-2.592
		l-7.533-3.6c-8.408-4.01-17.104-8.156-25.514-12.426c-2.648-1.346-5.23-2.867-7.963-4.48c-3.998-2.358-8.131-4.797-12.629-6.727
		c-6.087-2.611-12.379-4.632-18.465-6.588c-2.545-0.816-5.178-1.662-7.72-2.529l-1.017-0.346h-11.782l-0.722,5.662
		c-1.735,13.625,4.87,23.365,9.99,29.508c2.992,3.59,5.648,7.633,7.893,12.018c0.959,1.877,1.721,4.541-0.93,8.521
		c-2.256,3.391-3.803,7.398-4.354,11.285c-2.525,17.824,1.984,33.504,13.408,46.673c-7.383,5.632-12.99,12.786-16.719,21.356
		c-1.744,4.007-3.494,8.232-5.205,12.559c-4.464,11.285-9.506,18.605-16.348,23.736c-4.492,3.369-9.752,6.072-14.84,8.688
		c-5.834,3-9.154,7.656-9.867,13.838c-0.283,2.453-0.709,4.908-1.16,7.51c-0.205,1.182-0.412,2.365-0.604,3.549l-0.084,0.515v17.229
		l0.062,0.442c0.154,1.115,0.299,2.232,0.444,3.348c0.321,2.484,0.655,5.053,1.103,7.629c5.49,31.59,23.033,55.387,52.141,70.732
		c20.799,10.965,43.645,15.018,65.264,18.229c3.699,0.55,7.4,1.11,11.1,1.67l5.938,0.896h9.057l1.908-3.018
		c0.086-0.136,0.177-0.269,0.268-0.402c0.348-0.512,0.822-1.216,1.242-2.09c1.719-3.586,3.418-7.184,5.115-10.779
		c3.632-7.69,7.387-15.641,11.277-23.309c2.998-5.912,6.557-12.069,11.539-19.965c2.676-4.24,7.033-7.561,9.92-7.561
		c0.232,0,0.447,0.021,0.66,0.064c2.594,0.539,5.303,0.813,8.055,0.813h0.002c1.354,0,2.715-0.068,4.043-0.201
		c11.906-1.199,21.82-6.945,30.18-12.238c4.445-2.815,10.533-6.98,15.426-10.328c3.357-2.296,7.137-4.882,8.277-5.569
		c3.095-1.221,5.585-2.28,5.693-2.326l0.877-0.372c0.514-0.04,1.229-0.056,1.711-0.066c1.568-0.037,3.191-0.074,4.768-0.52
		c2.828-0.801,5.754-1.374,8.697-1.704c8.588-0.962,18.861-6.553,21.139-11.502c3.365-7.316,5.615-14.123,7.768-23.5
		C5169.482,3164.915,5164.936,3156.315,5159.826,3149.477z M5157.891,3186.453c-1.85,8.062-3.877,14.717-7.338,22.241
		c-0.908,1.972-8.457,6.929-15.973,7.771c-3.281,0.367-6.566,1.01-9.742,1.907c-2.041,0.578-6.6-0.169-8.129,1.233
		c0,0-2.662,1.133-5.863,2.391c-1.361,0.535-15.951,10.931-24.462,16.32c-8.45,5.351-17.169,10.238-27.36,11.264
		c-3.336,0.336-6.854,0.174-10.133-0.508c-6.654-1.385-13.752,4.634-17.379,10.383c-4.207,6.667-8.273,13.463-11.838,20.489
		c-5.725,11.285-10.984,22.806-16.457,34.219c-0.309,0.646-0.76,1.224-1.145,1.832c-1.667,0-3.334,0-5.002,0
		c-5.523-0.832-11.045-1.675-16.57-2.496c-21.793-3.236-43.465-7.151-63.193-17.552c-26.797-14.127-43.537-35.954-48.777-66.109
		c-0.621-3.566-1.016-7.172-1.514-10.759c0-5.418,0-10.838,0-16.257c0.613-3.782,1.365-7.549,1.805-11.352
		c0.486-4.217,2.604-6.869,6.393-8.816c5.418-2.787,10.914-5.633,15.766-9.27c8.988-6.74,14.406-16.229,18.484-26.537
		c1.641-4.146,3.344-8.268,5.121-12.357c4.251-9.768,11.059-17.273,20.723-22.748c-0.883-0.947-1.592-1.752-2.346-2.516
		c-12.223-12.398-17.02-27.296-14.592-44.441c0.423-2.98,1.66-6.092,3.332-8.602c3.281-4.93,3.877-10.033,1.303-15.064
		c-2.391-4.672-5.324-9.188-8.684-13.217c-5.999-7.197-9.762-14.938-8.538-24.539c1.667,0,3.335,0,5.001,0
		c8.596,2.928,17.402,5.367,25.721,8.938c7.021,3.012,13.369,7.555,20.213,11.03c10.258,5.206,20.672,10.106,31.053,15.071
		c6.449,3.084,12.887,6.217,19.473,8.986c3.049,1.281,6.439,1.748,9.797,2.191c-4.547-3.572-11.301-2.842-15-8.09
		c15.555-7.305,31.278-9.191,47.854-4.227c13.568,4.064,16.645,2.539,25.303-8.559c5.361-6.869,11.008-13.533,16.85-19.998
		c2.021-2.236,5.018-3.588,7.568-5.344c0.209,0,0.418,0,0.625,0c6.107,6.137,7.029,13.934,5.801,21.764
		c-1.311,8.357-3.916,16.504-5.76,24.788c-0.369,1.659-0.365,3.759,0.34,5.239c4.197,8.814,12.002,13.295,20.811,16.15
		c2.783,0.902,3.732,2.143,3.297,4.822c-0.303,1.846-0.371,3.75-0.854,5.545c-1.527,5.678,0.609,9.951,4.873,13.492
		c0.642,0.531,1.287,1.064,1.971,1.537c6.215,4.297,6.555,6.67,3.174,14.504c3.857,2.154,6.848,4.686,10.488,6.656
		c7.179,4.01,9.127,10.82,9.179,13.037c0.181,7.685-2.396,9.637-1.558,17.264C5152.77,3155.17,5164.891,3155.953,5157.891,3186.453z
		"/>
	<path d="M4950.219,3084.973c8.615-6.146,17.062-11.941,25.225-18.117c2.996-2.266,5.312-5.428,8.459-8.727
		c-4.771-1.814-8.656-3.406-12.619-4.775c-9.803-3.391-19.063-7.613-26.326-15.403c-1.449-1.556-3.654-2.407-5.674-3.687
		c1.381,13.134,2.531,25.715,4.109,38.242C4944.035,3077.617,4946.299,3082.203,4950.219,3084.973z"/>
	<path d="M5048.328,3093.977c-2.666,0.262-3.131,2.289-3.195,4.498c0.045,2.227,0.894,3.908,3.271,4.18
		c1.998,0.227,3.709-1.828,3.666-4.137C5052.025,3096.029,5050.289,3093.787,5048.328,3093.977z"/>
	<path d="M5057.9,3225.456c1.449-2.075,7.291-3.159,13.856-4.051c-0.407-0.095-0.815-0.192-1.226-0.311
		C5065.551,3219.664,5061.078,3220.908,5057.9,3225.456z"/>
	<path d="M5092.118,3217.692c-3.677,1.861-12.534,2.65-20.361,3.713C5079.094,3223.099,5085.713,3220.936,5092.118,3217.692z"/>
	<path d="M5113.699,3094.898c-0.521-5.885-1.043-11.779-1.576-17.799C5111.021,3081.666,5112.277,3088.225,5113.699,3094.898z"/>
	<path d="M5139.545,3145.338c-0.002-0.012-0.004-0.022-0.004-0.033c-0.002,0.01-0.002,0.021-0.002,0.033H5139.545z"/>
	<path d="M5140.014,3209.436c-0.219,0.056-1.307,0.327-2.885,0.729C5137.994,3210.354,5139.136,3209.869,5140.014,3209.436z"/>
	<path d="M5139.539,3145.338c0-0.012,0-0.023,0.002-0.033h-0.002C5139.539,3145.326,5139.537,3145.348,5139.539,3145.338z"/>
	<path d="M5155.465,3174.422c0.064-0.314,0.129-0.631,0.193-0.935c-0.064,0.304-0.143,0.603-0.217,0.901
		C5155.449,3174.4,5155.457,3174.412,5155.465,3174.422z"/>
	<polygon points="5155.066,3176.424 5155.066,3176.428 5155.068,3176.424 	"/>
</g>
</svg>
