<?xml version="1.0" encoding="utf-8"?>
<!-- Generator: Adobe Illustrator 16.0.0, SVG Export Plug-In . SVG Version: 6.00 Build 0)  -->
<!DOCTYPE svg PUBLIC "-//W3C//DTD SVG 1.1//EN" "http://www.w3.org/Graphics/SVG/1.1/DTD/svg11.dtd">
<svg version="1.1" id="Layer_1" xmlns="http://www.w3.org/2000/svg" xmlns:xlink="http://www.w3.org/1999/xlink" x="0px" y="0px"
	 width="293.045px" height="312.634px" viewBox="4479.504 2768.681 293.045 312.634"
	 enable-background="new 4479.504 2768.681 293.045 312.634" xml:space="preserve">
<g>
	<path fill="none" d="M4417.191,727.215c-0.521-5.886-1.045-11.779-1.578-17.799C4414.514,713.982,4415.77,720.54,4417.191,727.215z
		"/>
	<path fill="none" d="M4395.609,850.009c-3.678,1.861-12.533,2.65-20.361,3.713C4382.586,855.415,4389.203,853.252,4395.609,850.009
		z"/>
	<path fill="none" d="M4253.711,717.289c8.613-6.146,17.062-11.941,25.225-18.116c2.994-2.266,5.312-5.428,8.457-8.727
		c-4.77-1.814-8.653-3.406-12.617-4.776c-9.804-3.392-19.063-7.614-26.326-15.404c-1.449-1.555-3.655-2.405-5.674-3.686
		c1.381,13.133,2.53,25.715,4.108,38.242C4247.527,709.933,4249.791,714.52,4253.711,717.289z"/>
	<path fill="none" d="M4351.82,726.294c-2.668,0.261-3.131,2.288-3.195,4.498c0.043,2.226,0.893,3.907,3.271,4.178
		c1.998,0.229,3.709-1.827,3.666-4.137C4355.518,728.345,4353.779,726.104,4351.82,726.294z"/>
	<path fill="none" d="M4361.393,857.771c1.449-2.074,7.291-3.158,13.855-4.051c-0.406-0.094-0.814-0.191-1.227-0.311
		C4369.043,851.98,4364.57,853.225,4361.393,857.771z"/>
	<path fill="none" d="M4395.609,850.009c-3.678,1.861-12.533,2.65-20.361,3.713C4382.586,855.415,4389.203,853.252,4395.609,850.009
		z"/>
	<path fill="none" d="M4417.191,727.215c-0.521-5.886-1.045-11.779-1.578-17.799C4414.514,713.982,4415.77,720.54,4417.191,727.215z
		"/>
	<path fill="none" d="M4443.037,777.654c-0.002-0.013-0.004-0.022-0.004-0.034c-0.002,0.011-0.002,0.022-0.004,0.035
		L4443.037,777.654z"/>
	<path fill="none" d="M4443.504,841.752c-0.219,0.056-1.305,0.326-2.883,0.729C4441.484,842.67,4442.627,842.186,4443.504,841.752z"
		/>
	<path d="M4443.029,777.655c0.002-0.013,0.002-0.024,0.004-0.035c-0.012,0.01-0.021,0.025-0.029,0.036
		C4443.014,777.656,4443.021,777.655,4443.029,777.655z"/>
	<path fill="#FFFFFF" d="M4458.865,807.177c0.094-0.467,0.189-0.927,0.285-1.373c-0.096,0.444-0.217,0.88-0.318,1.322
		C4458.844,807.145,4458.854,807.159,4458.865,807.177z"/>
	<path fill="#FFFFFF" d="M4458.832,807.126c-0.107,0.467-0.221,0.931-0.334,1.396c0.006,0.003,0.02,0.011,0.021,0.012
		c-0.004,0.068,0.014,0.141,0.039,0.211c0.102-0.532,0.203-1.057,0.307-1.566C4458.854,807.159,4458.844,807.145,4458.832,807.126z"
		/>
	<g>
		<path d="M4455.492,780.479c-0.838-7.627,1.736-9.578,1.557-17.264c-0.051-2.218-2-9.026-9.18-13.038
			c-3.641-1.97-6.629-4.5-10.486-6.655c3.379-7.834,3.041-10.206-3.174-14.504c-0.685-0.474-1.33-1.006-1.971-1.537
			c-4.266-3.539-6.4-7.813-4.873-13.491c0.482-1.794,0.551-3.698,0.852-5.545c0.438-2.682-0.512-3.92-3.295-4.822
			c-8.809-2.855-16.612-7.337-20.811-16.149c-0.706-1.48-0.709-3.582-0.34-5.24c1.844-8.282,4.449-16.431,5.76-24.787
			c1.227-7.831,0.305-15.627-5.801-21.765c-0.208,0-0.416,0-0.625,0c-2.551,1.756-5.548,3.108-7.568,5.345
			c-5.842,6.464-11.49,13.129-16.85,19.998c-8.66,11.098-11.736,12.622-25.303,8.559c-16.576-4.965-32.299-3.079-47.854,4.228
			c3.696,5.246,10.451,4.519,14.998,8.09c-3.354-0.442-6.746-0.91-9.795-2.191c-6.586-2.771-13.022-5.902-19.474-8.986
			c-10.381-4.964-20.795-9.863-31.053-15.071c-6.844-3.476-13.191-8.018-20.213-11.029c-8.32-3.569-17.125-6.009-25.721-8.938
			c-1.666,0-3.334,0-5.002,0c-1.224,9.602,2.539,17.344,8.539,24.539c3.358,4.029,6.293,8.545,8.684,13.218
			c2.574,5.03,1.979,10.136-1.305,15.063c-1.67,2.511-2.908,5.62-3.33,8.603c-2.43,17.146,2.369,32.044,14.592,44.441
			c0.752,0.764,1.463,1.567,2.344,2.516c-9.664,5.474-16.471,12.979-20.721,22.747c-1.779,4.09-3.482,8.212-5.121,12.357
			c-4.078,10.31-9.496,19.796-18.484,26.537c-4.852,3.638-10.348,6.481-15.768,9.269c-3.787,1.947-5.904,4.602-6.392,8.817
			c-0.438,3.803-1.19,7.568-1.806,11.352c0,5.419,0,10.839,0,16.258c0.498,3.587,0.894,7.191,1.514,10.759
			c5.241,30.154,21.98,51.981,48.777,66.108c19.729,10.4,41.4,14.314,63.193,17.554c5.525,0.819,11.047,1.663,16.57,2.494
			c1.666,0,3.334,0,5.002,0c0.385-0.607,0.836-1.187,1.145-1.831c5.473-11.413,10.73-22.936,16.457-34.22
			c3.564-7.025,7.631-13.821,11.838-20.489c3.627-5.748,10.723-11.769,17.379-10.383c3.279,0.683,6.797,0.845,10.133,0.509
			c10.191-1.025,18.909-5.913,27.359-11.265c8.512-5.391,23.102-15.786,24.461-16.319c3.203-1.259,5.865-2.392,5.865-2.392
			c1.528-1.401,6.088-0.655,8.129-1.231c3.176-0.899,6.459-1.541,9.74-1.908c7.518-0.842,15.065-5.799,15.973-7.771
			c3.463-7.523,5.488-14.179,7.34-22.24C4468.383,788.27,4456.262,787.486,4455.492,780.479z M4372.283,678.559
			c9.757,2.535,17.047,8.847,23.957,15.715c5.993,5.957,12.037,11.835,19.373,15.144c0.533,6.021,1.057,11.913,1.578,17.799
			c1.029,4.834,2.148,9.729,2.523,13.974c-6.109,0.003-13.131,0.231-17.869,5.248c14.733,0.226,18.03-4.279,30.287,4.18
			c-1.529,0.088-0.845,0.119-9.951,0.757c-7.135,0.5-11.672,4.703-12.342,11.338c-0.621,6.175,12.725,13.034,19.045,14.951
			c4.512,0.014,9.057-0.036,13.688-0.039c-0.312,2.433,1.584,12.211-2.354,14.028c-3.385,0.672-6.715,5.417-9.19,11
			c-3.824,8.621-7.013,20.069-10.942,25.008c-2.115,2.654-4.262,5.275-6.504,7.787c-5.166,5.779-10.863,10.966-17.974,14.562
			c-6.405,3.243-13.022,5.406-20.36,3.713c-6.564,0.893-12.406,1.977-13.855,4.051c-0.764,1.093-1.805,2.03-2.854,2.873
			c-2.004,1.61-4.242,2.5-6.98,1.688c0.32-4.389,3.242-6.03,6.801-7.198c0.883-0.29,1.852-1.066,2.271-1.883
			c1.457-2.828,2.399-5.95,4.062-8.637c4.397-7.107,4.088-10.479-2-16.005c-4.617-4.194-4.76-6.159-0.786-10.907
			c2.109-2.521,1.973-3.393-1.182-4.706c-2.069-0.861-2.934-2.224-2.64-4.346c0.497-3.59,0.55-7.346,1.706-10.718
			c2.791-8.136,6.041-16.118,9.234-24.11c4.492-11.25,10.348-21.412,22.041-26.257c-1.25-3.167-2.871-6.038-3.482-9.111
			c-1.01-5.083-1.303-10.301-2.016-15.446c-0.926-6.677-1.51-13.445-3.062-19.979c-2.24-9.42-7.117-17.626-14.133-25.315
			C4370.133,678.093,4371.221,678.281,4372.283,678.559z M4448.973,800.827c0.215,0.146,0.271,0.439,0.123,0.655
			c-0.146,0.215-0.438,0.271-0.653,0.124c-0.53-0.361-3.658-3.536-13.133,1.54c-0.021,0.011-0.138,0.118-0.317,0.235
			c-0.457,0.299-1.328,0.668-2.129-0.28c-0.029-0.037-0.041-0.079-0.054-0.121c-0.054-0.19,0.06-0.418,0.246-0.52
			C4443.018,797.123,4448.393,800.432,4448.973,800.827z M4325.186,725.446c1.517-4.626,3.412-9.148,5.438-13.58
			c1.674-3.666,3.479-7.349,5.787-10.628c2.896-4.116,7.149-6.396,12.815-7.104c-9.139,7.125-13.811,16.839-19.467,25.874
			c8.148-5.188,16.521-6.483,25.207-2.773c-6.016,1.182-12.225,1.811-18.021,3.703c-6.285,2.053-10.063,7.014-11.604,13.834
			c3.217,0.252,3.334,2.316,3.646,4.747c0.362,2.831,1.158,5.753,2.451,8.285c3.101,6.077,10.461,9.422,17.455,8.386
			c6.381-0.944,10.403-4.982,12.095-12.188c0.274-1.167,0.412-2.366,0.789-4.595c1.453,1.934,2.6,2.982,3.153,4.285
			c1.481,3.482-0.01,7.686-3.606,10.769c-4.58,3.925-9.84,6.587-15.685,7.985c-11.685,2.798-20.22-2.093-22.183-13.753
			C4322.16,741.01,4322.707,733.013,4325.186,725.446z M4355.562,730.833c0.043,2.31-1.668,4.364-3.666,4.137
			c-2.379-0.271-3.229-1.952-3.271-4.178c0.064-2.21,0.527-4.237,3.195-4.498C4353.779,726.104,4355.518,728.345,4355.562,730.833z
			 M4248.449,670.266c7.262,7.79,16.521,12.014,26.326,15.404c3.963,1.37,7.848,2.962,12.617,4.776
			c-3.146,3.299-5.463,6.461-8.457,8.727c-8.162,6.175-16.611,11.971-25.225,18.116c-3.92-2.771-6.185-7.356-6.828-12.467
			c-1.578-12.527-2.728-25.109-4.108-38.242C4244.793,667.859,4247,668.711,4248.449,670.266z M4443.504,841.752
			c-0.877,0.434-2.02,0.918-2.883,0.729c-5.457,1.395-18.547,4.134-20.598,5.395c10.16-14.067,11.053-18.779,10.762-18.938
			c-1.219,1.442-9.09,11.744-10.34,12.812c-8.229,7.031-13.062,10.776-21.662,17.32c-15.842,12.059-33.975,18.022-53.887,18.648
			c-2.492,0.079-3.597-0.683-3.807-3.234c-0.12-1.474-0.956-2.889-1.716-5.021c-1.33,2.525-2.351,4.111-3.03,5.832
			c-1.101,2.778-3.054,4.171-5.933,4.823c-2.819,0.641-0.69,4.033-3.054,8.746c-0.994,1.811-1.846,3.338-2.676,4.876
			c-7.815,14.461-14.949,29.245-19.746,45.003c-0.979,3.208-2.321,3.758-5.176,3.282c-9.11-1.52-18.283-2.702-27.356-4.407
			c-16.36-3.072-32.283-7.596-47.353-14.898c-41.778-20.247-53.18-59.435-47.053-95.619c0.168-0.987,1.137-2.101,2.04-2.652
			c3.272-2.004,6.835-3.562,10.005-5.704c13.148-8.89,25.627-18.316,29.219-35.245c3.402-16.023,15.67-25.388,27.533-35.789
			c-0.619,4.007-0.879,7.533-1.737,10.907c-2.278,8.938-4.81,17.813-7.252,26.71c-2.89,10.518-3.365,20.682,4.071,29.811
			c0.9,1.105,1.435,2.526,2.051,3.841c0.236,0.507,0.229,1.126,0.332,1.694c-0.213,0.145-0.428,0.285-0.641,0.428
			c-3.275-4.089-6.551-8.178-9.826-12.267c-0.676,1.049-0.697,1.646-0.672,2.244c0.539,12.525,6.305,21.995,17.439,27.567
			c7.476,3.742,15.432,6.564,23.285,9.5c8.771,3.28,17.625,6.273,24.887,12.574c0.783,0.68,2.531,0.59,3.747,0.376
			c10.376-1.829,20.788-3.174,31.341-2.158c7.072,0.682,13.795,2.321,18.244,8.621c1.038,1.47,2.225,1.719,3.729,0.784
			c1.146-0.709,2.492-1.195,3.435-2.107c4.31-4.174,8.938-6.312,15.377-6.52c14.142-0.451,25.729-7.384,35.731-17.102
			c5.974-5.802,14.396-15.444,17.154-24.068c0-0.007,0.004-0.012,0.006-0.019c1.695-5.317,3.172-8.163,6.488-9.961
			c0.604-0.327,1.108-0.091,1.506,0.332c0.658,0.699,1.016,1.909,1.016,1.909c0.695-0.128,2-3.5,4.857-4.316h0.002
			c0.979-0.273-1.377,4.188-0.359,4.191c1.729,0.006,6-5.75,6.625-3.125c0.083,0.348,1.863-1.532,2.25-1.5
			c3.963,0.331,7.479,2.045,8.678,2.679c0,0.001,0,0.003-0.002,0.003C4456.198,821.135,4454.021,839.081,4443.504,841.752z
			 M4459.15,805.804c-0.064,0.305-0.131,0.621-0.194,0.937c-3.2-4.704-9.485-12.828-12.965-14.743c0,0-0.022-0.024-0.019-0.073
			c0.209-2.279-2.943-11.965-2.967-14.303c0,0,0.016,0,0.022,0c-0.002-0.056,0.004-0.218,0.008-0.35
			c0.013-0.04-0.003,0.256-0.006,0.35l0,0c0.002,0.012,0.004,0.021,0.006,0.034c1.33-0.08,2.834-0.136,4.679-0.136
			c5.168,2.418,0.953,6.521,5.668,9.666c0.432,0.289,2.041,4.381,2.332,4.812C4459.918,798.186,4460.4,800.018,4459.15,805.804z"/>
		<path d="M4443.031,777.62h-0.002c0,0.011,0,0.035,0,0.035C4443.029,777.665,4443.029,777.643,4443.031,777.62z"/>
	</g>
	<circle cx="4395.652" cy="813.106" r="1.875"/>
	<circle cx="4407.402" cy="808.69" r="1.875"/>
	<circle cx="4407.402" cy="816.856" r="1.875"/>
	<circle cx="4399.402" cy="802.106" r="1.875"/>
	<circle cx="4413.486" cy="801.521" r="1.875"/>
	<circle cx="4390.236" cy="797.771" r="1.875"/>
	<circle cx="4416.736" cy="811.231" r="1.875"/>
</g>
<g>
	<path fill="none" d="M4726.191,2860.215c-0.521-5.886-1.045-11.779-1.578-17.799
		C4723.514,2846.982,4724.77,2853.54,4726.191,2860.215z"/>
	<path fill="none" d="M4704.609,2983.009c-3.678,1.861-12.533,2.65-20.361,3.713
		C4691.586,2988.415,4698.203,2986.252,4704.609,2983.009z"/>
	<path fill="none" d="M4562.711,2850.289c8.613-6.146,17.062-11.941,25.225-18.116c2.994-2.266,5.312-5.428,8.457-8.727
		c-4.77-1.814-8.653-3.406-12.617-4.776c-9.804-3.392-19.063-7.614-26.326-15.404c-1.449-1.555-3.655-2.405-5.674-3.686
		c1.381,13.133,2.53,25.715,4.108,38.242C4556.527,2842.933,4558.791,2847.52,4562.711,2850.289z"/>
	<path fill="none" d="M4660.82,2859.294c-2.668,0.261-3.131,2.288-3.195,4.498c0.043,2.226,0.893,3.907,3.271,4.178
		c1.998,0.229,3.709-1.827,3.666-4.137C4664.518,2861.345,4662.779,2859.104,4660.82,2859.294z"/>
	<path fill="none" d="M4670.393,2990.771c1.449-2.074,7.291-3.158,13.855-4.051c-0.406-0.094-0.814-0.191-1.227-0.311
		C4678.043,2984.98,4673.57,2986.225,4670.393,2990.771z"/>
	<path fill="none" d="M4704.609,2983.009c-3.678,1.861-12.533,2.65-20.361,3.713
		C4691.586,2988.415,4698.203,2986.252,4704.609,2983.009z"/>
	<path fill="none" d="M4726.191,2860.215c-0.521-5.886-1.045-11.779-1.578-17.799
		C4723.514,2846.982,4724.77,2853.54,4726.191,2860.215z"/>
	<path fill="none" d="M4752.037,2910.654c-0.002-0.013-0.004-0.022-0.004-0.034c-0.002,0.011-0.002,0.022-0.004,0.035
		L4752.037,2910.654z"/>
	<path fill="none" d="M4752.504,2974.752c-0.219,0.056-1.305,0.326-2.883,0.729
		C4750.484,2975.67,4751.627,2975.186,4752.504,2974.752z"/>
	<path d="M4752.029,2910.655c0.002-0.013,0.002-0.024,0.004-0.035c-0.012,0.01-0.021,0.025-0.029,0.036
		C4752.014,2910.656,4752.021,2910.655,4752.029,2910.655z"/>
	<path fill="#FFFFFF" d="M4767.865,2940.177c0.094-0.467,0.189-0.927,0.285-1.373c-0.096,0.444-0.217,0.88-0.318,1.322
		C4767.844,2940.145,4767.854,2940.159,4767.865,2940.177z"/>
	<path fill="#FFFFFF" d="M4767.832,2940.126c-0.107,0.467-0.221,0.931-0.334,1.396c0.006,0.003,0.02,0.011,0.021,0.012
		c-0.004,0.068,0.014,0.141,0.039,0.211c0.102-0.532,0.203-1.057,0.307-1.566
		C4767.854,2940.159,4767.844,2940.145,4767.832,2940.126z"/>
	<g>
		<path d="M4764.492,2913.479c-0.838-7.627,1.736-9.578,1.557-17.264c-0.051-2.218-2-9.026-9.18-13.038
			c-3.641-1.97-6.629-4.5-10.486-6.655c3.379-7.834,3.041-10.206-3.174-14.504c-0.685-0.474-1.33-1.006-1.971-1.537
			c-4.266-3.539-6.4-7.813-4.873-13.491c0.482-1.794,0.551-3.698,0.852-5.545c0.438-2.682-0.512-3.92-3.295-4.822
			c-8.809-2.855-16.612-7.337-20.811-16.149c-0.706-1.48-0.709-3.582-0.34-5.24c1.844-8.282,4.449-16.431,5.76-24.787
			c1.227-7.831,0.305-15.627-5.801-21.765c-0.208,0-0.416,0-0.625,0c-2.551,1.756-5.548,3.108-7.568,5.345
			c-5.842,6.464-11.49,13.129-16.85,19.998c-8.66,11.098-11.736,12.622-25.303,8.559c-16.576-4.965-32.299-3.079-47.854,4.228
			c3.696,5.246,10.451,4.519,14.998,8.09c-3.354-0.442-6.746-0.91-9.795-2.191c-6.586-2.771-13.022-5.902-19.474-8.986
			c-10.381-4.964-20.795-9.863-31.053-15.071c-6.844-3.476-13.191-8.018-20.213-11.029c-8.32-3.569-17.125-6.009-25.721-8.938
			c-1.666,0-3.334,0-5.002,0c-1.224,9.602,2.539,17.344,8.539,24.539c3.358,4.029,6.293,8.545,8.684,13.218
			c2.574,5.03,1.979,10.136-1.305,15.063c-1.67,2.511-2.908,5.62-3.33,8.603c-2.43,17.146,2.369,32.044,14.592,44.441
			c0.752,0.764,1.463,1.567,2.344,2.516c-9.664,5.474-16.471,12.979-20.721,22.747c-1.779,4.09-3.482,8.212-5.121,12.357
			c-4.078,10.31-9.496,19.796-18.484,26.537c-4.852,3.638-10.348,6.481-15.768,9.269c-3.787,1.947-5.904,4.602-6.392,8.817
			c-0.438,3.803-1.19,7.568-1.806,11.352c0,5.419,0,10.839,0,16.258c0.498,3.587,0.894,7.191,1.514,10.759
			c5.241,30.154,21.98,51.981,48.777,66.108c19.729,10.4,41.4,14.314,63.193,17.554c5.525,0.819,11.047,1.663,16.57,2.494
			c1.666,0,3.334,0,5.002,0c0.385-0.607,0.836-1.187,1.145-1.831c5.473-11.413,10.73-22.936,16.457-34.22
			c3.564-7.025,7.631-13.821,11.838-20.489c3.627-5.748,10.723-11.769,17.379-10.383c3.279,0.683,6.797,0.845,10.133,0.509
			c10.191-1.025,18.909-5.913,27.359-11.265c8.512-5.391,23.102-15.786,24.461-16.319c3.203-1.259,5.865-2.392,5.865-2.392
			c1.528-1.401,6.088-0.655,8.129-1.231c3.176-0.899,6.459-1.541,9.74-1.908c7.518-0.842,15.065-5.799,15.973-7.771
			c3.463-7.523,5.488-14.179,7.34-22.24C4777.383,2921.27,4765.262,2920.486,4764.492,2913.479z M4681.283,2811.559
			c9.757,2.535,17.047,8.847,23.957,15.715c5.993,5.957,12.037,11.835,19.373,15.144c0.533,6.021,1.057,11.913,1.578,17.799
			c1.029,4.834,2.148,9.729,2.523,13.974c-6.109,0.003-13.131,0.231-17.869,5.248c14.733,0.226,18.03-4.279,30.287,4.18
			c-1.529,0.088-0.845,0.119-9.951,0.757c-7.135,0.5-11.672,4.703-12.342,11.338c-0.621,6.175,12.725,13.034,19.045,14.951
			c4.512,0.014,9.057-0.036,13.688-0.039c-0.312,2.433,1.584,12.211-2.354,14.028c-3.385,0.672-6.715,5.417-9.19,11
			c-3.824,8.621-7.013,20.069-10.942,25.008c-2.115,2.654-4.262,5.275-6.504,7.787c-5.166,5.779-10.863,10.966-17.974,14.562
			c-6.405,3.243-13.022,5.406-20.36,3.713c-6.564,0.893-12.406,1.977-13.855,4.051c-0.764,1.093-1.805,2.03-2.854,2.873
			c-2.004,1.61-4.242,2.5-6.98,1.688c0.32-4.389,3.242-6.03,6.801-7.198c0.883-0.29,1.852-1.066,2.271-1.883
			c1.457-2.828,2.399-5.95,4.062-8.637c4.397-7.107,4.088-10.479-2-16.005c-4.617-4.194-4.76-6.159-0.786-10.907
			c2.109-2.521,1.973-3.393-1.182-4.706c-2.069-0.861-2.934-2.224-2.64-4.346c0.497-3.59,0.55-7.346,1.706-10.718
			c2.791-8.136,6.041-16.118,9.234-24.11c4.492-11.25,10.348-21.412,22.041-26.257c-1.25-3.167-2.871-6.038-3.482-9.111
			c-1.01-5.083-1.303-10.301-2.016-15.446c-0.926-6.677-1.51-13.445-3.062-19.979c-2.24-9.42-7.117-17.626-14.133-25.315
			C4679.133,2811.093,4680.221,2811.281,4681.283,2811.559z M4757.973,2933.827c0.215,0.146,0.271,0.439,0.123,0.655
			c-0.146,0.215-0.438,0.271-0.653,0.124c-0.53-0.361-3.658-3.536-13.133,1.54c-0.021,0.011-0.138,0.118-0.317,0.235
			c-0.457,0.299-1.328,0.668-2.129-0.28c-0.029-0.037-0.041-0.079-0.054-0.121c-0.054-0.19,0.06-0.418,0.246-0.52
			C4752.018,2930.123,4757.393,2933.432,4757.973,2933.827z M4634.186,2858.446c1.517-4.626,3.412-9.148,5.438-13.58
			c1.674-3.666,3.479-7.349,5.787-10.628c2.896-4.116,7.149-6.396,12.815-7.104c-9.139,7.125-13.811,16.839-19.467,25.874
			c8.148-5.188,16.521-6.483,25.207-2.773c-6.016,1.182-12.225,1.811-18.021,3.703c-6.285,2.053-10.063,7.014-11.604,13.834
			c3.217,0.252,3.334,2.316,3.646,4.747c0.362,2.831,1.158,5.753,2.451,8.285c3.101,6.077,10.461,9.422,17.455,8.386
			c6.381-0.944,10.403-4.982,12.095-12.188c0.274-1.167,0.412-2.366,0.789-4.595c1.453,1.934,2.6,2.982,3.153,4.285
			c1.481,3.482-0.01,7.686-3.606,10.769c-4.58,3.925-9.84,6.587-15.685,7.985c-11.685,2.798-20.22-2.093-22.183-13.753
			C4631.16,2874.01,4631.707,2866.013,4634.186,2858.446z M4664.562,2863.833c0.043,2.31-1.668,4.364-3.666,4.137
			c-2.379-0.271-3.229-1.952-3.271-4.178c0.064-2.21,0.527-4.237,3.195-4.498
			C4662.779,2859.104,4664.518,2861.345,4664.562,2863.833z M4557.449,2803.266c7.262,7.79,16.521,12.014,26.326,15.404
			c3.963,1.37,7.848,2.962,12.617,4.776c-3.146,3.299-5.463,6.461-8.457,8.727c-8.162,6.175-16.611,11.971-25.225,18.116
			c-3.92-2.771-6.185-7.356-6.828-12.467c-1.578-12.527-2.728-25.109-4.108-38.242
			C4553.793,2800.859,4556,2801.711,4557.449,2803.266z M4752.504,2974.752c-0.877,0.434-2.02,0.918-2.883,0.729
			c-5.457,1.395-18.547,4.134-20.598,5.395c10.16-14.067,11.053-18.779,10.762-18.938c-1.219,1.442-9.09,11.744-10.34,12.812
			c-8.229,7.031-13.062,10.776-21.662,17.32c-15.842,12.059-33.975,18.022-53.887,18.648c-2.492,0.079-3.597-0.683-3.807-3.234
			c-0.12-1.474-0.956-2.889-1.716-5.021c-1.33,2.525-2.351,4.111-3.03,5.832c-1.101,2.778-3.054,4.171-5.933,4.823
			c-2.819,0.641-0.69,4.033-3.054,8.746c-0.994,1.811-1.846,3.338-2.676,4.876c-7.815,14.461-14.949,29.245-19.746,45.003
			c-0.979,3.208-2.321,3.758-5.176,3.282c-9.11-1.52-18.283-2.702-27.356-4.407c-16.36-3.072-32.283-7.596-47.353-14.898
			c-41.778-20.247-53.18-59.435-47.053-95.619c0.168-0.987,1.137-2.101,2.04-2.652c3.272-2.004,6.835-3.562,10.005-5.704
			c13.148-8.89,25.627-18.316,29.219-35.245c3.402-16.023,15.67-25.388,27.533-35.789c-0.619,4.007-0.879,7.533-1.737,10.907
			c-2.278,8.938-4.81,17.813-7.252,26.71c-2.89,10.518-3.365,20.682,4.071,29.811c0.9,1.105,1.435,2.526,2.051,3.841
			c0.236,0.507,0.229,1.126,0.332,1.694c-0.213,0.145-0.428,0.285-0.641,0.428c-3.275-4.089-6.551-8.178-9.826-12.267
			c-0.676,1.049-0.697,1.646-0.672,2.244c0.539,12.525,6.305,21.995,17.439,27.567c7.476,3.742,15.432,6.564,23.285,9.5
			c8.771,3.28,17.625,6.273,24.887,12.574c0.783,0.68,2.531,0.59,3.747,0.376c10.376-1.829,20.788-3.174,31.341-2.158
			c7.072,0.682,13.795,2.321,18.244,8.621c1.038,1.47,2.225,1.719,3.729,0.784c1.146-0.709,2.492-1.195,3.435-2.107
			c4.31-4.174,8.938-6.312,15.377-6.52c14.142-0.451,25.729-7.384,35.731-17.102c5.974-5.802,14.396-15.444,17.154-24.068
			c0-0.007,0.004-0.012,0.006-0.019c1.695-5.317,3.172-8.163,6.488-9.961c0.604-0.327,1.108-0.091,1.506,0.332
			c0.658,0.699,1.016,1.909,1.016,1.909c0.695-0.128,2-3.5,4.857-4.316h0.002c0.979-0.273-1.377,4.188-0.359,4.191
			c1.729,0.006,6-5.75,6.625-3.125c0.083,0.348,1.863-1.532,2.25-1.5c3.963,0.331,7.479,2.045,8.678,2.679
			c0,0.001,0,0.003-0.002,0.003C4765.198,2954.135,4763.021,2972.081,4752.504,2974.752z M4768.15,2938.804
			c-0.064,0.305-0.131,0.621-0.194,0.937c-3.2-4.704-9.485-12.828-12.965-14.743c0,0-0.022-0.024-0.019-0.073
			c0.209-2.279-2.943-11.965-2.967-14.303c0,0,0.016,0,0.022,0c-0.002-0.056,0.004-0.218,0.008-0.35
			c0.013-0.04-0.003,0.256-0.006,0.35l0,0c0.002,0.012,0.004,0.021,0.006,0.034c1.33-0.08,2.834-0.136,4.679-0.136
			c5.168,2.418,0.953,6.521,5.668,9.666c0.432,0.289,2.041,4.381,2.332,4.812C4768.918,2931.186,4769.4,2933.018,4768.15,2938.804z"
			/>
		<path d="M4752.031,2910.62h-0.002c0,0.011,0,0.035,0,0.035C4752.029,2910.665,4752.029,2910.643,4752.031,2910.62z"/>
	</g>
	<circle cx="4704.652" cy="2946.106" r="1.875"/>
	<circle cx="4716.402" cy="2941.69" r="1.875"/>
	<circle cx="4716.402" cy="2949.856" r="1.875"/>
	<circle cx="4708.402" cy="2935.106" r="1.875"/>
	<circle cx="4722.486" cy="2934.521" r="1.875"/>
	<circle cx="4699.236" cy="2930.771" r="1.875"/>
	<circle cx="4725.736" cy="2944.231" r="1.875"/>
</g>
</svg>
